<mxfile host="app.diagrams.net" modified="2022-05-03T14:22:59.778Z" agent="5.0 (Windows NT 10.0; Win64; x64) AppleWebKit/537.36 (KHTML, like Gecko) Chrome/100.0.4896.127 Safari/537.36" etag="ZA7bMIuTGy2HAUa74uY-" version="17.4.2" type="github">
  <diagram id="dR5L8txPh-ZsMB0356Bi" name="Page-1">
    <mxGraphModel dx="312" dy="445" grid="1" gridSize="10" guides="1" tooltips="1" connect="1" arrows="1" fold="1" page="1" pageScale="1" pageWidth="850" pageHeight="1100" math="0" shadow="0">
      <root>
        <mxCell id="0" />
        <mxCell id="1" parent="0" />
        <mxCell id="8AezmTqxgummtCErfAQI-10" style="edgeStyle=orthogonalEdgeStyle;rounded=0;orthogonalLoop=1;jettySize=auto;html=1;exitX=0.75;exitY=0;exitDx=0;exitDy=0;entryX=0;entryY=0.5;entryDx=0;entryDy=0;fillColor=#f8cecc;strokeColor=#009900;" edge="1" parent="1" source="8AezmTqxgummtCErfAQI-3" target="8AezmTqxgummtCErfAQI-5">
          <mxGeometry relative="1" as="geometry">
            <Array as="points">
              <mxPoint x="150" y="210" />
            </Array>
          </mxGeometry>
        </mxCell>
        <mxCell id="8AezmTqxgummtCErfAQI-36" value="" style="edgeStyle=orthogonalEdgeStyle;rounded=0;orthogonalLoop=1;jettySize=auto;html=1;entryX=1;entryY=1;entryDx=0;entryDy=0;entryPerimeter=0;" edge="1" parent="1" source="8AezmTqxgummtCErfAQI-3" target="8AezmTqxgummtCErfAQI-14">
          <mxGeometry relative="1" as="geometry" />
        </mxCell>
        <mxCell id="8AezmTqxgummtCErfAQI-3" value="&lt;u style=&quot;font-weight: bold&quot;&gt;View&lt;/u&gt;&lt;br&gt;FXML&lt;br&gt;UI Logic&lt;br&gt;" style="rounded=0;whiteSpace=wrap;html=1;fillColor=#dae8fc;strokeColor=#6c8ebf;" vertex="1" parent="1">
          <mxGeometry x="60" y="290" width="120" height="60" as="geometry" />
        </mxCell>
        <mxCell id="8AezmTqxgummtCErfAQI-11" style="edgeStyle=orthogonalEdgeStyle;rounded=0;orthogonalLoop=1;jettySize=auto;html=1;exitX=1;exitY=0.5;exitDx=0;exitDy=0;entryX=0.25;entryY=0;entryDx=0;entryDy=0;strokeColor=#009900;" edge="1" parent="1" source="8AezmTqxgummtCErfAQI-5" target="8AezmTqxgummtCErfAQI-6">
          <mxGeometry relative="1" as="geometry" />
        </mxCell>
        <mxCell id="8AezmTqxgummtCErfAQI-5" value="&lt;u style=&quot;font-weight: bold&quot;&gt;ViewModel&lt;/u&gt;" style="rounded=0;whiteSpace=wrap;html=1;fillColor=#dae8fc;strokeColor=#6c8ebf;" vertex="1" parent="1">
          <mxGeometry x="240" y="180" width="120" height="60" as="geometry" />
        </mxCell>
        <mxCell id="8AezmTqxgummtCErfAQI-6" value="&lt;u style=&quot;font-weight: bold&quot;&gt;Model&lt;/u&gt;&lt;br&gt;Business Logic" style="rounded=0;whiteSpace=wrap;html=1;fillColor=#dae8fc;strokeColor=#6c8ebf;" vertex="1" parent="1">
          <mxGeometry x="410" y="290" width="120" height="60" as="geometry" />
        </mxCell>
        <mxCell id="8AezmTqxgummtCErfAQI-14" value="" style="shape=actor;whiteSpace=wrap;html=1;" vertex="1" parent="1">
          <mxGeometry x="20" y="210" width="40" height="60" as="geometry" />
        </mxCell>
        <mxCell id="8AezmTqxgummtCErfAQI-15" value="" style="verticalLabelPosition=bottom;verticalAlign=top;html=1;shape=mxgraph.basic.smiley" vertex="1" parent="1">
          <mxGeometry x="25" y="210" width="30" height="30" as="geometry" />
        </mxCell>
        <mxCell id="8AezmTqxgummtCErfAQI-16" value="" style="verticalLabelPosition=bottom;verticalAlign=top;html=1;shape=mxgraph.basic.pyramid;dx1=0.43;dx2=0.56;dy1=0.84;dy2=0.83;fillColor=#FF0000;" vertex="1" parent="1">
          <mxGeometry x="30" y="180" width="20" height="40" as="geometry" />
        </mxCell>
        <mxCell id="8AezmTqxgummtCErfAQI-17" value="" style="sketch=0;html=1;aspect=fixed;strokeColor=none;shadow=0;align=center;verticalAlign=top;fillColor=#3B8DF1;shape=mxgraph.gcp2.cloud_monitoring" vertex="1" parent="1">
          <mxGeometry x="509" y="330" width="18" height="20" as="geometry" />
        </mxCell>
        <mxCell id="8AezmTqxgummtCErfAQI-23" value="" style="shape=image;html=1;verticalAlign=top;verticalLabelPosition=bottom;labelBackgroundColor=#ffffff;imageAspect=0;aspect=fixed;image=https://cdn2.iconfinder.com/data/icons/whcompare-isometric-web-hosting-servers/50/root-access-128.png;flipH=1;" vertex="1" parent="1">
          <mxGeometry x="42" y="220" width="48" height="48" as="geometry" />
        </mxCell>
        <mxCell id="8AezmTqxgummtCErfAQI-34" value="" style="html=1;labelBackgroundColor=#ffffff;startArrow=classic;startFill=1;startSize=6;endArrow=classic;endFill=1;endSize=6;jettySize=auto;orthogonalLoop=1;strokeWidth=1;dashed=1;fontSize=14;rounded=0;entryX=-0.005;entryY=0.169;entryDx=0;entryDy=0;exitX=0.667;exitY=0;exitDx=0;exitDy=0;exitPerimeter=0;entryPerimeter=0;fillColor=#e1d5e7;strokeColor=#FF0000;" edge="1" parent="1" source="8AezmTqxgummtCErfAQI-3" target="8AezmTqxgummtCErfAQI-5">
          <mxGeometry width="60" height="60" relative="1" as="geometry">
            <mxPoint x="120" y="290" as="sourcePoint" />
            <mxPoint x="180" y="230" as="targetPoint" />
            <Array as="points">
              <mxPoint x="140" y="190" />
              <mxPoint x="160" y="190" />
              <mxPoint x="200" y="190" />
            </Array>
          </mxGeometry>
        </mxCell>
        <mxCell id="8AezmTqxgummtCErfAQI-35" value="&lt;font color=&quot;#ff0000&quot;&gt;Data Binding&lt;/font&gt;" style="text;html=1;align=center;verticalAlign=middle;resizable=0;points=[];autosize=1;strokeColor=none;fillColor=none;" vertex="1" parent="1">
          <mxGeometry x="115" y="170" width="80" height="20" as="geometry" />
        </mxCell>
        <mxCell id="8AezmTqxgummtCErfAQI-38" value="&lt;font color=&quot;#0000ff&quot;&gt;Notifications&lt;/font&gt;" style="text;html=1;align=center;verticalAlign=middle;resizable=0;points=[];autosize=1;strokeColor=none;fillColor=none;" vertex="1" parent="1">
          <mxGeometry x="320" y="270" width="80" height="20" as="geometry" />
        </mxCell>
        <mxCell id="8AezmTqxgummtCErfAQI-40" value="&lt;font color=&quot;#009900&quot;&gt;Commands&lt;/font&gt;" style="text;html=1;align=center;verticalAlign=middle;resizable=0;points=[];autosize=1;" vertex="1" parent="1">
          <mxGeometry x="146" y="210" width="80" height="20" as="geometry" />
        </mxCell>
        <mxCell id="8AezmTqxgummtCErfAQI-41" value="&lt;font color=&quot;#009900&quot;&gt;Commands&lt;/font&gt;" style="text;html=1;align=center;verticalAlign=middle;resizable=0;points=[];autosize=1;strokeColor=none;fillColor=none;" vertex="1" parent="1">
          <mxGeometry x="360" y="210" width="80" height="20" as="geometry" />
        </mxCell>
        <mxCell id="8AezmTqxgummtCErfAQI-42" value="" style="html=1;labelBackgroundColor=#ffffff;startArrow=none;startFill=0;startSize=6;endArrow=classic;endFill=1;endSize=6;jettySize=auto;orthogonalLoop=1;strokeWidth=1;dashed=1;fontSize=14;rounded=0;exitX=0;exitY=0;exitDx=0;exitDy=0;entryX=1.023;entryY=1.023;entryDx=0;entryDy=0;entryPerimeter=0;strokeColor=#0000FF;" edge="1" parent="1" source="8AezmTqxgummtCErfAQI-6" target="8AezmTqxgummtCErfAQI-5">
          <mxGeometry width="60" height="60" relative="1" as="geometry">
            <mxPoint x="300" y="200" as="sourcePoint" />
            <mxPoint x="360" y="140" as="targetPoint" />
          </mxGeometry>
        </mxCell>
        <mxCell id="8AezmTqxgummtCErfAQI-43" value="" style="html=1;labelBackgroundColor=#ffffff;startArrow=none;startFill=0;startSize=6;endArrow=classic;endFill=1;endSize=6;jettySize=auto;orthogonalLoop=1;strokeWidth=1;dashed=1;fontSize=14;rounded=0;exitX=0;exitY=1;exitDx=0;exitDy=0;entryX=1;entryY=0;entryDx=0;entryDy=0;strokeColor=#0000FF;" edge="1" parent="1" source="8AezmTqxgummtCErfAQI-5" target="8AezmTqxgummtCErfAQI-3">
          <mxGeometry width="60" height="60" relative="1" as="geometry">
            <mxPoint x="420" y="300" as="sourcePoint" />
            <mxPoint x="372.76" y="251.38" as="targetPoint" />
          </mxGeometry>
        </mxCell>
        <mxCell id="8AezmTqxgummtCErfAQI-44" value="&lt;font color=&quot;#0000ff&quot;&gt;Notifications&lt;/font&gt;" style="text;html=1;align=center;verticalAlign=middle;resizable=0;points=[];autosize=1;strokeColor=none;fillColor=none;" vertex="1" parent="1">
          <mxGeometry x="195" y="268" width="80" height="20" as="geometry" />
        </mxCell>
        <mxCell id="8AezmTqxgummtCErfAQI-45" value="" style="endArrow=none;dashed=1;html=1;rounded=0;exitX=0.502;exitY=-0.002;exitDx=0;exitDy=0;exitPerimeter=0;entryX=0.5;entryY=1;entryDx=0;entryDy=0;" edge="1" parent="1" source="8AezmTqxgummtCErfAQI-28" target="8AezmTqxgummtCErfAQI-6">
          <mxGeometry width="50" height="50" relative="1" as="geometry">
            <mxPoint x="390" y="360" as="sourcePoint" />
            <mxPoint x="459" y="360" as="targetPoint" />
          </mxGeometry>
        </mxCell>
        <mxCell id="8AezmTqxgummtCErfAQI-47" value="" style="rounded=0;whiteSpace=wrap;html=1;strokeColor=#0066CC;fillColor=#FFFFFF;" vertex="1" parent="1">
          <mxGeometry x="410" y="400" width="120" height="70" as="geometry" />
        </mxCell>
        <mxCell id="8AezmTqxgummtCErfAQI-28" value="" style="shape=mxgraph.signs.transportation.sea_plane;html=1;pointerEvents=1;fillColor=#000000;strokeColor=none;verticalLabelPosition=bottom;verticalAlign=top;align=center;" vertex="1" parent="1">
          <mxGeometry x="420.5" y="400" width="99" height="68" as="geometry" />
        </mxCell>
        <mxCell id="8AezmTqxgummtCErfAQI-48" value="" style="sketch=0;pointerEvents=1;shadow=0;dashed=0;html=1;strokeColor=#6c8ebf;fillColor=#dae8fc;aspect=fixed;labelPosition=center;verticalLabelPosition=bottom;verticalAlign=top;align=center;outlineConnect=0;shape=mxgraph.vvd.nsx_dashboard;" vertex="1" parent="1">
          <mxGeometry x="61.72" y="376" width="118.28" height="110" as="geometry" />
        </mxCell>
        <mxCell id="8AezmTqxgummtCErfAQI-50" value="" style="shape=image;html=1;verticalAlign=top;verticalLabelPosition=bottom;labelBackgroundColor=#ffffff;imageAspect=0;aspect=fixed;image=https://cdn0.iconfinder.com/data/icons/octicons/1024/dashboard-128.png;strokeColor=#0066CC;fillColor=#FFFFFF;" vertex="1" parent="1">
          <mxGeometry x="157" y="428" width="20" height="20" as="geometry" />
        </mxCell>
        <mxCell id="8AezmTqxgummtCErfAQI-54" value="" style="shape=image;html=1;verticalAlign=top;verticalLabelPosition=bottom;labelBackgroundColor=#ffffff;imageAspect=0;aspect=fixed;image=https://cdn0.iconfinder.com/data/icons/octicons/1024/dashboard-128.png;strokeColor=#0066CC;fillColor=#FFFFFF;" vertex="1" parent="1">
          <mxGeometry x="157" y="408" width="20" height="20" as="geometry" />
        </mxCell>
        <mxCell id="8AezmTqxgummtCErfAQI-55" value="" style="endArrow=none;dashed=1;html=1;dashPattern=1 3;strokeWidth=2;rounded=0;entryX=0.5;entryY=1;entryDx=0;entryDy=0;" edge="1" parent="1" source="8AezmTqxgummtCErfAQI-48" target="8AezmTqxgummtCErfAQI-3">
          <mxGeometry width="50" height="50" relative="1" as="geometry">
            <mxPoint x="120" y="370" as="sourcePoint" />
            <mxPoint x="310" y="370" as="targetPoint" />
          </mxGeometry>
        </mxCell>
      </root>
    </mxGraphModel>
  </diagram>
</mxfile>
